<svg xmlns="http://www.w3.org/2000/svg" width="64" height="64" style="">
    <title>my vector image
    </title>                                    <!-- Created with Vector Paint - http://www.vectorpaint.yaks.com/ https://chrome.google.com/webstore/detail/hnbpdiengicdefcjecjbnjnoifekhgdo -->
    <rect id="backgroundrect" width="100%" height="100%" x="0" y="0" fill="#FFFFFF" stroke="none" class="" style=""/>
    <g class="currentLayer" style="">
        <title>Layer 1</title>
        <path fill="#ffffff" fill-opacity="1" stroke="#b8b804" stroke-opacity="1" stroke-width="2"
              stroke-dasharray="none" stroke-linejoin="round" stroke-linecap="butt" stroke-dashoffset=""
              fill-rule="nonzero" opacity="1" marker-start="" marker-mid="" marker-end=""
              d="M-30.14012510194162,-0.6472990536338017 C-30.14012510194162,-4.36100347511945 -26.9396213477545,-7.369104056522829 -22.988382145054345,-7.369104056522829 C-19.037142942354194,-7.369104056522829 -15.836639188167071,-4.36100347511945 -15.836639188167071,-0.6472990536338017 C-15.836639188167071,3.06640536785185 -19.037142942354194,6.074505949255226 -22.988382145054345,6.074505949255226 C-26.9396213477545,6.074505949255226 -30.14012510194162,3.06640536785185 -30.14012510194162,-0.6472990536338017 z"
              id="svg_1" class=""/>
        <path fill="#ffffff" fill-opacity="1" stroke="#b8b804" stroke-opacity="1" stroke-width="2"
              stroke-dasharray="none" stroke-linejoin="round" stroke-linecap="butt" stroke-dashoffset=""
              fill-rule="nonzero" opacity="1" marker-start="" marker-mid="" marker-end=""
              d="M-6.711553535002267,24.0669865286702 C-6.711553535002267,20.353282107184548 -3.511049780815142,17.34518152578117 0.44018942188500887,17.34518152578117 C4.39142862458516,17.34518152578117 7.5919323787722846,20.353282107184548 7.5919323787722846,24.0669865286702 C7.5919323787722846,27.78069095015585 4.39142862458516,30.788791531559227 0.44018942188500887,30.788791531559227 C-3.511049780815142,30.788791531559227 -6.711553535002267,27.78069095015585 -6.711553535002267,24.0669865286702 z"
              class="" id="svg_10"/>
        <path fill="#ffffff" fill-opacity="1" stroke="#b8b804" stroke-opacity="1" stroke-width="2"
              stroke-dasharray="none" stroke-linejoin="round" stroke-linecap="butt" stroke-dashoffset=""
              fill-rule="nonzero" opacity="1" marker-start="" marker-mid="" marker-end=""
              d="M17.145587020975555,0.20984434846580768 C17.145587020975555,-3.503860073019837 20.346090775162672,-6.51196065442322 24.29732997786283,-6.51196065442322 C28.24856918056298,-6.51196065442322 31.449072934750106,-3.503860073019837 31.449072934750106,0.20984434846580768 C31.449072934750106,3.923548769951452 28.24856918056298,6.931649351354835 24.29732997786283,6.931649351354835 C20.346090775162672,6.931649351354835 17.145587020975555,3.923548769951452 17.145587020975555,0.20984434846580768 z"
              class="" id="svg_11"/>
        <path fill="#ffffff" fill-opacity="1" stroke="#b8b804" stroke-opacity="1" stroke-width="2"
              stroke-dasharray="none" stroke-linejoin="round" stroke-linecap="butt" stroke-dashoffset=""
              fill-rule="nonzero" opacity="1" marker-start="" marker-mid="" marker-end=""
              d="M-7.140127858656442,-24.79015735026657 C-7.140127858656442,-28.50386177175222 -3.939624104469317,-31.511962353155596 0.011615098230834064,-31.511962353155596 C3.962854300930985,-31.511962353155596 7.16335805511811,-28.50386177175222 7.16335805511811,-24.79015735026657 C7.16335805511811,-21.076452928780917 3.962854300930985,-18.06835234737754 0.011615098230834064,-18.06835234737754 C-3.939624104469317,-18.06835234737754 -7.140127858656442,-21.076452928780917 -7.140127858656442,-24.79015735026657 z"
              class="" id="svg_12"/>
        <path fill="#ffffff" fill-opacity="1" stroke="#b8b804" stroke-opacity="1" stroke-width="5"
              stroke-dasharray="none" stroke-linejoin="round" stroke-linecap="butt" stroke-dashoffset=""
              fill-rule="nonzero" opacity="1" marker-start="" marker-mid="" marker-end=""
              d="M-15.496242274669473,0.06630312002640437 L16.634312041951254,0.06630312002640437 " id="svg_4"
              class=""/>
        <path fill="#ffffff" fill-opacity="1" stroke="#b8b804" stroke-opacity="1" stroke-width="5"
              stroke-dasharray="none" stroke-linejoin="round" stroke-linecap="butt" stroke-dashoffset=""
              fill-rule="nonzero" opacity="1" marker-start="" marker-mid="" marker-end=""
              d="M0.28571338525838996,-17.78571321283068 L0.42857052811552876,17.5000010728836 " id="svg_13" class=""/>
        <path fill="#ffffff" fill-opacity="1" stroke="#b8b804" stroke-opacity="1" stroke-width="2"
              stroke-dasharray="none" stroke-linejoin="round" stroke-linecap="butt" stroke-dashoffset=""
              fill-rule="nonzero" opacity="1" marker-start="" marker-mid="" marker-end=""
              d="M-25.14285719394684,-0.5714285969734192 C-25.14285719394684,-1.676400972664027 -24.247829569637446,-2.571428596973419 -23.14285719394684,-2.571428596973419 C-22.03788481825623,-2.571428596973419 -21.14285719394684,-1.676400972664027 -21.14285719394684,-0.5714285969734192 C-21.14285719394684,0.5335437787171886 -22.03788481825623,1.4285714030265808 -23.14285719394684,1.4285714030265808 C-24.247829569637446,1.4285714030265808 -25.14285719394684,0.5335437787171886 -25.14285719394684,-0.5714285969734192 z"
              id="svg_2" class=""/>
        <path fill="#ffffff" fill-opacity="1" stroke="#b8b804" stroke-opacity="1" stroke-width="2"
              stroke-dasharray="none" stroke-linejoin="round" stroke-linecap="butt" stroke-dashoffset=""
              fill-rule="nonzero" opacity="1" marker-start="" marker-mid="" marker-end=""
              d="M-1.9999997168779375,-24.85714226961136 C-1.9999997168779375,-25.962114645301966 -1.104972092568545,-26.85714226961136 2.8312206271086104e-7,-26.85714226961136 C1.1049726588126703,-26.85714226961136 2.0000002831220627,-25.962114645301966 2.0000002831220627,-24.85714226961136 C2.0000002831220627,-23.75216989392075 1.1049726588126703,-22.85714226961136 2.8312206271086104e-7,-22.85714226961136 C-1.104972092568545,-22.85714226961136 -1.9999997168779375,-23.75216989392075 -1.9999997168779375,-24.85714226961136 z"
              class="" id="svg_5"/>
        <path fill="#ffffff" fill-opacity="1" stroke="#b8b804" stroke-opacity="1" stroke-width="2"
              stroke-dasharray="none" stroke-linejoin="round" stroke-linecap="butt" stroke-dashoffset=""
              fill-rule="nonzero" opacity="1" marker-start="" marker-mid="" marker-end=""
              d="M22.42857150733471,0.2857148051261902 C22.42857150733471,-0.8192575705644174 23.3235991316441,-1.7142851948738098 24.42857150733471,-1.7142851948738098 C25.533543883025317,-1.7142851948738098 26.42857150733471,-0.8192575705644174 26.42857150733471,0.2857148051261902 C26.42857150733471,1.3906871808167978 25.533543883025317,2.28571480512619 24.42857150733471,2.28571480512619 C23.3235991316441,2.28571480512619 22.42857150733471,1.3906871808167978 22.42857150733471,0.2857148051261902 z"
              class="" id="svg_3"/>
        <path fill="#ffffff" fill-opacity="1" stroke="#b8b804" stroke-opacity="1" stroke-width="2"
              stroke-dasharray="none" stroke-linejoin="round" stroke-linecap="butt" stroke-dashoffset=""
              fill-rule="nonzero" opacity="1" marker-start="" marker-mid="" marker-end=""
              d="M-1.5714304745197296,24.142857044935226 C-1.5714304745197296,23.03788466924462 -0.6764028502103372,22.142857044935226 0.4285695254802704,22.142857044935226 C1.5335419011708782,22.142857044935226 2.4285695254802704,23.03788466924462 2.4285695254802704,24.142857044935226 C2.4285695254802704,25.247829420625834 1.5335419011708782,26.142857044935226 0.4285695254802704,26.142857044935226 C-0.6764028502103372,26.142857044935226 -1.5714304745197296,25.247829420625834 -1.5714304745197296,24.142857044935226 z"
              class="" id="svg_6"/>
    </g>
</svg>